<svg xmlns="http://www.w3.org/2000/svg" id="Layer_1" version="1.1" viewBox="0 0 512 512"><defs><style>.st0{fill:#231f20}</style></defs><path d="M489.34 232.72 287.26 132.36c-9.76-4.85-20.37-7.27-30.97-7.27s-21.54 2.5-31.42 7.49l-59.5 30.09 29.04 14.42c17.26-7.11 38.55-11.31 61.6-11.31 57.57 0 104.23 26.19 104.23 58.49v23.95c0 32.3-46.67 58.49-104.23 58.49s-104.23-26.19-104.23-58.49V224.28c0-6.6 1.95-12.94 5.53-18.85l-38.6-19.17-96.16 48.62c-12.79 6.47-12.72 24.75.11 31.13l202.08 100.36c9.76 4.85 20.37 7.27 30.97 7.27s21.54-2.5 31.42-7.49l202.31-102.29c12.79-6.47 12.72-24.75-.11-31.13Z" class="st0"/><path d="M256 183.72c-49.38 0-86.29 21.4-86.29 40.54s36.9 40.54 86.29 40.54 86.29-21.4 86.29-40.54-36.9-40.54-86.29-40.54Z" class="st0"/></svg>
